<?xml version="1.0" encoding="UTF-8" standalone="no"?>
<svg
   xmlns:dc="http://purl.org/dc/elements/1.1/"
   xmlns:cc="http://creativecommons.org/ns#"
   xmlns:rdf="http://www.w3.org/1999/02/22-rdf-syntax-ns#"
   xmlns:svg="http://www.w3.org/2000/svg"
   xmlns="http://www.w3.org/2000/svg"
   xmlns:sodipodi="http://sodipodi.sourceforge.net/DTD/sodipodi-0.dtd"
   xmlns:inkscape="http://www.inkscape.org/namespaces/inkscape"
   width="100"
   height="100"
   id="svg2"
   version="1.1"
   inkscape:version="0.48.4 r9939"
   sodipodi:docname="chat.svg">
  <metadata
     id="metadata14">
    <rdf:RDF>
      <cc:Work
         rdf:about="">
        <dc:format>image/svg+xml</dc:format>
        <dc:type
           rdf:resource="http://purl.org/dc/dcmitype/StillImage" />
      </cc:Work>
    </rdf:RDF>
  </metadata>
  <defs
     id="defs12" />
  <sodipodi:namedview
     pagecolor="#ffffff"
     bordercolor="#666666"
     borderopacity="1"
     objecttolerance="10"
     gridtolerance="10"
     guidetolerance="10"
     inkscape:pageopacity="0"
     inkscape:pageshadow="2"
     inkscape:window-width="1366"
     inkscape:window-height="705"
     id="namedview10"
     showgrid="false"
     inkscape:zoom="2.36"
     inkscape:cx="50"
     inkscape:cy="50"
     inkscape:window-x="-8"
     inkscape:window-y="-8"
     inkscape:window-maximized="1"
     inkscape:current-layer="svg2" />
  <path
     fill-rule="evenodd"
     clip-rule="evenodd"
     fill="#C0392B"
     d="M100 58c0 3.313-2.687 6-6 6h-73c-3.313 0-6-2.687-6-6v-52c0-3.313 2.687-6 6-6h73c3.313 0 6 2.687 6 6v52z"
     id="path4" />
  <path
     fill-rule="evenodd"
     clip-rule="evenodd"
     fill="#E74C3C"
     d="M85 73c0 3.223-2.74 6-6 6h-13c-1.113 0-2 .754-2 2v18c0 .738-.253 1-.917 1-.232 0-.471-.154-.865-.457l-23.967-18.543c-3-2-6.129-2.006-6.129-2.006l-26.22-.002c-3.26 0-5.902-2.613-5.902-5.836v-51.125c0-3.221 2.896-6.047 6-6.031h73c3.562 0 6 2.778 6 6v51z"
     id="path6"
     style="stroke:none;stroke-opacity:1" />
</svg>
