<?xml version="1.0" encoding="UTF-8" standalone="no"?>
<svg
   xmlns:dc="http://purl.org/dc/elements/1.1/"
   xmlns:cc="http://creativecommons.org/ns#"
   xmlns:rdf="http://www.w3.org/1999/02/22-rdf-syntax-ns#"
   xmlns:svg="http://www.w3.org/2000/svg"
   xmlns="http://www.w3.org/2000/svg"
   xmlns:sodipodi="http://sodipodi.sourceforge.net/DTD/sodipodi-0.dtd"
   xmlns:inkscape="http://www.inkscape.org/namespaces/inkscape"
   height="60px"
   version="1.1"
   viewBox="0 0 60 60"
   width="60px"
   id="svg2"
   inkscape:version="0.48.4 r9939"
   sodipodi:docname="email.svg">
  <metadata
     id="metadata16">
    <rdf:RDF>
      <cc:Work
         rdf:about="">
        <dc:format>image/svg+xml</dc:format>
        <dc:type
           rdf:resource="http://purl.org/dc/dcmitype/StillImage" />
      </cc:Work>
    </rdf:RDF>
  </metadata>
  <sodipodi:namedview
     pagecolor="#ffffff"
     bordercolor="#666666"
     borderopacity="1"
     objecttolerance="10"
     gridtolerance="10"
     guidetolerance="10"
     inkscape:pageopacity="0"
     inkscape:pageshadow="2"
     inkscape:window-width="708"
     inkscape:window-height="480"
     id="namedview14"
     showgrid="false"
     inkscape:zoom="3.9333333"
     inkscape:cx="30"
     inkscape:cy="30"
     inkscape:window-x="0"
     inkscape:window-y="0"
     inkscape:window-maximized="0"
     inkscape:current-layer="svg2" />
  <title
     id="title4" />
  <defs
     id="defs6" />
  <g
     fill="none"
     fill-rule="evenodd"
     id="black"
     stroke="none"
     stroke-width="1">
    <g
       id="mail">
      <path
         d="M30,60 C46.5685433,60 60,46.5685433 60,30 C60,13.4314567 46.5685433,0 30,0 C13.4314567,0 0,13.4314567 0,30 C0,46.5685433 13.4314567,60 30,60 Z"
         fill="#000000"
         id="path10"
         style="fill:#000000;fill-opacity:0" />
      <path
         d="M30,33.4615385 L47.3076923,18.4615385 L12.6923077,18.4615385 L30,33.4615385 Z M25.3251765,31.8010536 L30,35.6382399 L34.6015813,31.8010536 L47.3076923,42.6923077 L12.6923077,42.6923077 L25.3251765,31.8010536 Z M11.5384615,41.5384615 L11.5384615,19.6153846 L24.2307692,30.5769231 L11.5384615,41.5384615 Z M48.4615385,41.5384615 L48.4615385,19.6153846 L35.7692308,30.5769231 L48.4615385,41.5384615 Z"
         fill="#FFFFFF"
         id="path12" />
    </g>
  </g>
</svg>
